<?xml version="1.0" encoding="UTF-8"?>
<svg id="Layer_1" data-name="Layer 1" xmlns="http://www.w3.org/2000/svg" version="1.1" viewBox="0 0 1920 1636">
  <defs>
    <style>
      .cls-1 {
        fill: #9c0d5f;
      }

      .cls-1, .cls-2 {
        stroke-width: 0px;
      }

      .cls-2 {
        fill: #c1006f;
      }
    </style>
  </defs>
  <rect class="cls-2" x="-.5" width="1920" height="1636"/>
  <path class="cls-1" d="M-319.35,745c2.76-24.14,14.88-45.07,23.8-66.97,41.27-101.32,79.86-203.53,107.59-309.51,3.91-14.96,7.08-30.29,8.56-45.65,1.85-19.28-4.31-25.14-23.62-25.35-37.49-.42-73.73,8.32-110.14,15.55-77.97,15.5-153.22,40.92-229.45,62.79-7.04,2.02-18.35,10.3-21.82.06-3.19-9.39,10.48-11.1,17.45-13.77,70.13-26.87,138.25-57.92,203.48-95.24,31.4-17.96,62.07-36.87,89.69-60.44,26.65-22.75,28.51-44.14,6.39-71.87C-290.23,80.96-345.07,41-399.64.85c-33.99-25.01-69.21-48.34-103.66-72.73-3.9-2.76-12.93-4.9-8.3-11.63,4.1-5.97,10.02.54,14.46,3C-426.73-41.45-358.46,1.56-284.35,33.76c26.53,11.53,53.46,21.82,81.52,28.91,22.68,5.73,33.97-3.23,34.42-26.41.78-40.33-17.08-75.37-32.03-111.05-18.93-45.16-43.15-87.63-69.42-128.92-3.42-5.37-9.83-11.44-1.67-17.15,6.89-4.82,11.16,2.16,15.19,6.3,21.75,22.36,35.54,50.91,57.61,73.21,38.25,38.64,72.94,81.23,122.33,107.09,24.83,13,40.62,5.29,47.05-22.35,7.61-32.75,7.73-66.02,7.75-99.36.05-84.52-7.93-168.31-22.55-251.51-1.05-5.99-1.33-12.14-1.54-18.23-.16-4.7-2.52-11.32,4.05-12.76,6.03-1.33,10.64,3.66,12.66,8.92,4.77,12.41,9.22,25,12.85,37.79,24.79,87.27,60.26,170.43,97.59,252.83,7.29,16.1,16.99,31.24,26.7,46.09,12.34,18.88,22.78,18.66,34.84-.61,13.62-21.76,23.57-45.43,31.08-69.86,16.61-54.04,32.54-108.31,40.83-164.45,1.03-6.98,1.33-16.02,11.65-14.76,10.05,1.23,8.14,10.28,8.54,17.25,4.04,70.37,8.68,140.58,33.79,207.58,9.04,24.12,15.68,26.79,37.52,12.25,42.35-28.18,78.54-63.66,114.82-98.77,67.92-65.72,132.89-134.31,194.34-206.17.72-.84,1.49-1.66,2.3-2.41,5.11-4.76,10.39-13.89,17.64-8.31,8.23,6.33-1.19,12.82-4.69,18.18-61.06,93.57-118.38,189.31-168.15,289.4-11.11,22.33-21.8,44.95-28.39,69.24-6.42,23.68-1.36,32.57,22.36,35.36,46.21,5.45,92-1.42,137.27-8.53,71.67-11.25,142.88-25.51,214.19-39,13.02-2.46,25.66-7.1,38.33-11.17,5.85-1.88,10.89-.55,16.03,1.81v6.67c-68.1,22.09-135.61,45.77-201.83,73.08-65.17,26.88-131.77,50.68-190.77,90.49-26.68,18-28.13,28.95-6.58,52.94,18.26,20.33,39.29,37.66,60.82,54.33,77.37,59.89,158.58,114.15,241.88,165.4,6.72,4.14,21.46,5.69,16.67,16.07-4.84,10.49-15.91.99-23.26-2.1-99.47-41.85-202.35-73.33-306.49-100.87-32.08-8.48-64.29-17.62-98.16-16.16-16.75.72-22.9,6.56-23.69,23.23-.74,15.76,2.04,30.81,7.59,45.62,19.35,51.69,44.59,100.35,73.99,147,4.2,6.66,16.8,14.49,8.36,21.79-8.44,7.31-17.74-3.62-25.64-9.19-1.34-.95-2.4-2.31-3.57-3.5-17.93-18.27-37.26-34.98-57.75-50.29-35.14-26.26-69.9-53.32-110.75-70.43-23.55-9.86-37.48-1.79-42.21,23.17-14.57,76.93-4.79,153.72,2.32,230.44,2.45,26.43,7.29,52.63,10.93,78.95.71,5.12.69,10.62-5.33,12.49-5.23,1.62-8.58-2.69-10.42-6.49-4.09-8.45-7.5-17.25-10.75-26.07-31.12-84.39-63.51-168.23-107.11-247.2-12.65-22.91-27.7-44.17-45.38-63.58-11.02-12.1-22.78-12.46-35.42-3.38-5.39,3.87-10.36,8.37-15.28,12.85-57.88,52.69-103.7,115.61-150.18,177.89-42.82,57.37-83.82,116.04-120.47,177.62h-13.35Z"/>
  <path class="cls-1" d="M1451.65,1106c2.76-24.14,14.88-45.07,23.8-66.97,41.27-101.32,79.86-203.53,107.59-309.51,3.91-14.96,7.08-30.29,8.56-45.65,1.85-19.28-4.31-25.14-23.62-25.35-37.49-.42-73.73,8.32-110.14,15.55-77.97,15.5-153.22,40.92-229.45,62.79-7.04,2.02-18.35,10.3-21.82.06-3.19-9.39,10.48-11.1,17.45-13.77,70.13-26.87,138.25-57.92,203.48-95.24,31.4-17.96,62.07-36.87,89.69-60.44,26.65-22.75,28.51-44.14,6.39-71.87-42.8-53.65-97.65-93.61-152.21-133.76-33.99-25.01-69.21-48.34-103.66-72.73-3.9-2.76-12.93-4.9-8.3-11.63,4.1-5.97,10.02.54,14.46,3,70.41,39.06,138.68,82.06,212.8,114.27,26.53,11.53,53.46,21.82,81.52,28.91,22.68,5.73,33.97-3.23,34.42-26.41.78-40.33-17.08-75.37-32.03-111.05-18.93-45.16-43.15-87.63-69.42-128.92-3.42-5.37-9.83-11.44-1.67-17.15,6.89-4.82,11.16,2.16,15.19,6.3,21.75,22.36,35.54,50.91,57.61,73.21,38.25,38.64,72.94,81.23,122.33,107.09,24.83,13,40.62,5.29,47.05-22.35,7.61-32.75,7.73-66.02,7.75-99.36.05-84.52-7.93-168.31-22.55-251.51-1.05-5.99-1.33-12.14-1.54-18.23-.16-4.7-2.52-11.32,4.05-12.76,6.03-1.33,10.64,3.66,12.66,8.92,4.77,12.41,9.22,25,12.85,37.79,24.79,87.27,60.26,170.43,97.59,252.83,7.29,16.1,16.99,31.24,26.7,46.09,12.34,18.88,22.78,18.66,34.84-.61,13.62-21.76,23.57-45.43,31.08-69.86,16.61-54.04,32.54-108.31,40.83-164.45,1.03-6.98,1.33-16.02,11.65-14.76,10.05,1.23,8.14,10.28,8.54,17.25,4.04,70.37,8.68,140.58,33.79,207.58,9.04,24.12,15.68,26.79,37.52,12.25,42.35-28.18,78.54-63.66,114.82-98.77,67.92-65.72,132.89-134.31,194.34-206.17.72-.84,1.49-1.66,2.3-2.41,5.11-4.76,10.39-13.89,17.64-8.31,8.23,6.33-1.19,12.82-4.69,18.18-61.06,93.57-118.38,189.31-168.15,289.4-11.11,22.33-21.8,44.95-28.39,69.24-6.42,23.68-1.36,32.57,22.36,35.36,46.21,5.45,92-1.42,137.27-8.53,71.67-11.25,142.88-25.51,214.19-39,13.02-2.46,25.66-7.1,38.33-11.17,5.85-1.88,10.89-.55,16.03,1.81v6.67c-68.1,22.09-135.61,45.77-201.83,73.08-65.17,26.88-131.77,50.68-190.77,90.49-26.68,18-28.13,28.95-6.58,52.94,18.26,20.33,39.29,37.66,60.82,54.33,77.37,59.89,158.58,114.15,241.88,165.4,6.72,4.14,21.46,5.69,16.67,16.07-4.84,10.49-15.91.99-23.26-2.1-99.47-41.85-202.35-73.33-306.49-100.87-32.08-8.48-64.29-17.62-98.16-16.16-16.75.72-22.9,6.56-23.69,23.23-.74,15.76,2.04,30.81,7.59,45.62,19.35,51.69,44.59,100.35,73.99,147,4.2,6.66,16.8,14.49,8.36,21.79-8.44,7.31-17.74-3.62-25.64-9.19-1.34-.95-2.4-2.31-3.57-3.5-17.93-18.27-37.26-34.98-57.75-50.29-35.14-26.26-69.9-53.32-110.75-70.43-23.55-9.86-37.48-1.79-42.21,23.17-14.57,76.93-4.79,153.72,2.32,230.44,2.45,26.43,7.29,52.63,10.93,78.95.71,5.12.69,10.62-5.33,12.49-5.23,1.62-8.58-2.69-10.42-6.49-4.09-8.45-7.5-17.25-10.75-26.07-31.12-84.39-63.51-168.23-107.11-247.2-12.65-22.91-27.7-44.17-45.38-63.58-11.02-12.1-22.78-12.46-35.42-3.38-5.39,3.87-10.36,8.37-15.28,12.85-57.88,52.69-103.7,115.61-150.18,177.89-42.82,57.37-83.82,116.04-120.47,177.62h-13.35Z"/>
  <path class="cls-1" d="M-140.35,2044c2.76-24.14,14.88-45.07,23.8-66.97,41.27-101.32,79.86-203.53,107.59-309.51,3.91-14.96,7.08-30.29,8.56-45.65,1.85-19.28-4.31-25.14-23.62-25.35-37.49-.42-73.73,8.32-110.14,15.55-77.97,15.5-153.22,40.92-229.45,62.79-7.04,2.02-18.35,10.3-21.82.06-3.19-9.39,10.48-11.1,17.45-13.77,70.13-26.87,138.25-57.92,203.48-95.24,31.4-17.96,62.07-36.87,89.69-60.44,26.65-22.75,28.51-44.14,6.39-71.87-42.8-53.65-97.65-93.61-152.21-133.76-33.99-25.01-69.21-48.34-103.66-72.73-3.9-2.76-12.93-4.9-8.3-11.63,4.1-5.97,10.02.54,14.46,3,70.41,39.06,138.68,82.06,212.8,114.27,26.53,11.53,53.46,21.82,81.52,28.91,22.68,5.73,33.97-3.23,34.42-26.41.78-40.33-17.08-75.37-32.03-111.05-18.93-45.16-43.15-87.63-69.42-128.92-3.42-5.37-9.83-11.44-1.67-17.15,6.89-4.82,11.16,2.16,15.19,6.3,21.75,22.36,35.54,50.91,57.61,73.21,38.25,38.64,72.94,81.23,122.33,107.09,24.83,13,40.62,5.29,47.05-22.35,7.61-32.75,7.73-66.02,7.75-99.36.05-84.52-7.93-168.31-22.55-251.51-1.05-5.99-1.33-12.14-1.54-18.23-.16-4.7-2.52-11.32,4.05-12.76,6.03-1.33,10.64,3.66,12.66,8.92,4.77,12.41,9.22,25,12.85,37.79,24.79,87.27,60.26,170.43,97.59,252.83,7.29,16.1,16.99,31.24,26.7,46.09,12.34,18.88,22.78,18.66,34.84-.61,13.62-21.76,23.57-45.43,31.08-69.86,16.61-54.04,32.54-108.31,40.83-164.45,1.03-6.98,1.33-16.02,11.65-14.76,10.05,1.23,8.14,10.28,8.54,17.25,4.04,70.37,8.68,140.58,33.79,207.58,9.04,24.12,15.68,26.79,37.52,12.25,42.35-28.18,78.54-63.66,114.82-98.77,67.92-65.72,132.89-134.31,194.34-206.17.72-.84,1.49-1.66,2.3-2.41,5.11-4.76,10.39-13.89,17.64-8.31,8.23,6.33-1.19,12.82-4.69,18.18-61.06,93.57-118.38,189.31-168.15,289.4-11.11,22.33-21.8,44.95-28.39,69.24-6.42,23.68-1.36,32.57,22.36,35.36,46.21,5.45,92-1.42,137.27-8.53,71.67-11.25,142.88-25.51,214.19-39,13.02-2.46,25.66-7.1,38.33-11.17,5.85-1.88,10.89-.55,16.03,1.81v6.67c-68.1,22.09-135.61,45.77-201.83,73.08-65.17,26.88-131.77,50.68-190.77,90.49-26.68,18-28.13,28.95-6.58,52.94,18.26,20.33,39.29,37.66,60.82,54.33,77.37,59.89,158.58,114.15,241.88,165.4,6.72,4.14,21.46,5.69,16.67,16.07-4.84,10.49-15.91.99-23.26-2.1-99.47-41.85-202.35-73.33-306.49-100.87-32.08-8.48-64.29-17.62-98.16-16.16-16.75.72-22.9,6.56-23.69,23.23-.74,15.76,2.04,30.81,7.59,45.62,19.35,51.69,44.59,100.35,73.99,147,4.2,6.66,16.8,14.49,8.36,21.79-8.44,7.31-17.74-3.62-25.64-9.19-1.34-.95-2.4-2.31-3.57-3.5-17.93-18.27-37.26-34.98-57.75-50.29-35.14-26.26-69.9-53.32-110.75-70.43-23.55-9.86-37.48-1.79-42.21,23.17-14.57,76.93-4.79,153.72,2.32,230.44,2.45,26.43,7.29,52.63,10.93,78.95.71,5.12.69,10.62-5.33,12.49-5.23,1.62-8.58-2.69-10.42-6.49-4.09-8.45-7.5-17.25-10.75-26.07-31.12-84.39-63.51-168.23-107.11-247.2-12.65-22.91-27.7-44.17-45.38-63.58-11.02-12.1-22.78-12.46-35.42-3.38-5.39,3.87-10.36,8.37-15.28,12.85-57.88,52.69-103.7,115.61-150.18,177.89-42.82,57.37-83.82,116.04-120.47,177.62h-13.35Z"/>
  <path class="cls-1" d="M1484.65,2290c2.76-24.14,14.88-45.07,23.8-66.97,41.27-101.32,79.86-203.53,107.59-309.51,3.91-14.96,7.08-30.29,8.56-45.65,1.85-19.28-4.31-25.14-23.62-25.35-37.49-.42-73.73,8.32-110.14,15.55-77.97,15.5-153.22,40.92-229.45,62.79-7.04,2.02-18.35,10.3-21.82.06-3.19-9.39,10.48-11.1,17.45-13.77,70.13-26.87,138.25-57.92,203.48-95.24,31.4-17.96,62.07-36.87,89.69-60.44,26.65-22.75,28.51-44.14,6.39-71.87-42.8-53.65-97.65-93.61-152.21-133.76-33.99-25.01-69.21-48.34-103.66-72.73-3.9-2.76-12.93-4.9-8.3-11.63,4.1-5.97,10.02.54,14.46,3,70.41,39.06,138.68,82.06,212.8,114.27,26.53,11.53,53.46,21.82,81.52,28.91,22.68,5.73,33.97-3.23,34.42-26.41.78-40.33-17.08-75.37-32.03-111.05-18.93-45.16-43.15-87.63-69.42-128.92-3.42-5.37-9.83-11.44-1.67-17.15,6.89-4.82,11.16,2.16,15.19,6.3,21.75,22.36,35.54,50.91,57.61,73.21,38.25,38.64,72.94,81.23,122.33,107.09,24.83,13,40.62,5.29,47.05-22.35,7.61-32.75,7.73-66.02,7.75-99.36.05-84.52-7.93-168.31-22.55-251.51-1.05-5.99-1.33-12.14-1.54-18.23-.16-4.7-2.52-11.32,4.05-12.76,6.03-1.33,10.64,3.66,12.66,8.92,4.77,12.41,9.22,25,12.85,37.79,24.79,87.27,60.26,170.43,97.59,252.83,7.29,16.1,16.99,31.24,26.7,46.09,12.34,18.88,22.78,18.66,34.84-.61,13.62-21.76,23.57-45.43,31.08-69.86,16.61-54.04,32.54-108.31,40.83-164.45,1.03-6.98,1.33-16.02,11.65-14.76,10.05,1.23,8.14,10.28,8.54,17.25,4.04,70.37,8.68,140.58,33.79,207.58,9.04,24.12,15.68,26.79,37.52,12.25,42.35-28.18,78.54-63.66,114.82-98.77,67.92-65.72,132.89-134.31,194.34-206.17.72-.84,1.49-1.66,2.3-2.41,5.11-4.76,10.39-13.89,17.64-8.31,8.23,6.33-1.19,12.82-4.69,18.18-61.06,93.57-118.38,189.31-168.15,289.4-11.11,22.33-21.8,44.95-28.39,69.24-6.42,23.68-1.36,32.57,22.36,35.36,46.21,5.45,92-1.42,137.27-8.53,71.67-11.25,142.88-25.51,214.19-39,13.02-2.46,25.66-7.1,38.33-11.17,5.85-1.88,10.89-.55,16.03,1.81v6.67c-68.1,22.09-135.61,45.77-201.83,73.08-65.17,26.88-131.77,50.68-190.77,90.49-26.68,18-28.13,28.95-6.58,52.94,18.26,20.33,39.29,37.66,60.82,54.33,77.37,59.89,158.58,114.15,241.88,165.4,6.72,4.14,21.46,5.69,16.67,16.07-4.84,10.49-15.91.99-23.26-2.1-99.47-41.85-202.35-73.33-306.49-100.87-32.08-8.48-64.29-17.62-98.16-16.16-16.75.72-22.9,6.56-23.69,23.23-.74,15.76,2.04,30.81,7.59,45.62,19.35,51.69,44.59,100.35,73.99,147,4.2,6.66,16.8,14.49,8.36,21.79-8.44,7.31-17.74-3.62-25.64-9.19-1.34-.95-2.4-2.31-3.57-3.5-17.93-18.27-37.26-34.98-57.75-50.29-35.14-26.26-69.9-53.32-110.75-70.43-23.55-9.86-37.48-1.79-42.21,23.17-14.57,76.93-4.79,153.72,2.32,230.44,2.45,26.43,7.29,52.63,10.93,78.95.71,5.12.69,10.62-5.33,12.49-5.23,1.62-8.58-2.69-10.42-6.49-4.09-8.45-7.5-17.25-10.75-26.07-31.12-84.39-63.51-168.23-107.11-247.2-12.65-22.91-27.7-44.17-45.38-63.58-11.02-12.1-22.78-12.46-35.42-3.38-5.39,3.87-10.36,8.37-15.28,12.85-57.88,52.69-103.7,115.61-150.18,177.89-42.82,57.37-83.82,116.04-120.47,177.62h-13.35Z"/>
</svg>